<svg width="139" height="158" viewBox="0 0 139 158" fill="none" xmlns="http://www.w3.org/2000/svg">
<circle cx="69.5" cy="88.3242" r="69.5" fill="#D4B76E"/>
<path d="M71.6859 120.129H67.0539C65.2308 120.121 63.4771 119.429 62.1407 118.189C60.8044 116.948 59.9831 115.251 59.8397 113.433C59.8274 113.269 59.8478 113.103 59.8995 112.946C59.9513 112.789 60.0335 112.643 60.1414 112.518C60.2494 112.393 60.3809 112.29 60.5286 112.215C60.6763 112.141 60.8372 112.096 61.0021 112.084C61.167 112.072 61.3328 112.092 61.4899 112.144C61.6469 112.196 61.7923 112.278 61.9176 112.386C62.0429 112.494 62.1458 112.625 62.2202 112.773C62.2947 112.921 62.3393 113.081 62.3516 113.246C62.4451 114.432 62.9803 115.539 63.8511 116.348C64.722 117.157 65.865 117.61 67.0539 117.617H71.6859C72.877 117.614 74.0232 117.162 74.8967 116.352C75.7702 115.542 76.3071 114.434 76.4007 113.246C76.4097 113.079 76.4519 112.916 76.5248 112.766C76.5978 112.615 76.7 112.481 76.8255 112.37C76.951 112.26 77.0973 112.176 77.2558 112.123C77.4143 112.07 77.5818 112.049 77.7485 112.061C77.9152 112.074 78.0777 112.119 78.2265 112.195C78.3754 112.271 78.5075 112.376 78.6153 112.504C78.723 112.632 78.8041 112.78 78.8539 112.94C78.9037 113.099 78.9211 113.267 78.9051 113.433C78.762 115.252 77.94 116.95 76.6026 118.191C75.2651 119.431 73.51 120.123 71.6859 120.129ZM77.6743 109.063C77.3412 109.063 77.0217 108.93 76.7862 108.695C76.5507 108.459 76.4183 108.14 76.4183 107.807V107.757C76.412 106.455 76.7302 105.171 77.3442 104.023C77.9582 102.875 78.8486 101.898 79.935 101.18C82.5998 99.4336 84.7875 97.0505 86.3005 94.2464C87.8135 91.4423 88.6042 88.3055 88.6011 85.1192C88.6011 74.6584 80.0933 66.0375 69.6362 65.9031C64.4868 65.8391 59.6262 67.8222 55.9111 71.4896C52.196 75.157 50.1525 79.9962 50.1525 85.1192C50.15 88.2901 50.9332 91.4121 52.4321 94.2063C53.931 97.0005 56.0989 99.3798 58.742 101.131C59.8398 101.854 60.7416 102.837 61.3668 103.993C61.9921 105.149 62.3213 106.442 62.3253 107.757V107.807C62.3253 108.14 62.1929 108.459 61.9574 108.695C61.7219 108.93 61.4024 109.063 61.0693 109.063C60.7362 109.063 60.4167 108.93 60.1812 108.695C59.9457 108.459 59.8133 108.14 59.8133 107.807V107.757C59.8092 106.856 59.5821 105.971 59.1523 105.18C58.7225 104.389 58.1035 103.717 57.3504 103.224C54.3625 101.243 51.9119 98.5525 50.2175 95.3933C48.5231 92.234 47.6378 88.7042 47.6406 85.1192C47.6406 79.3192 49.9516 73.8433 54.1465 69.7024C58.3414 65.5615 63.8588 63.3171 69.6538 63.3925C74.3053 63.4523 78.8148 65.0035 82.5189 67.8178C86.2229 70.632 88.926 74.5608 90.2304 79.026C91.5348 83.4913 91.3717 88.2574 89.7651 92.623C88.1584 96.9887 85.1931 100.723 81.3053 103.278C80.5669 103.768 79.9621 104.433 79.5455 105.215C79.1289 105.997 78.9135 106.871 78.9189 107.757V107.807C78.919 108.138 78.7882 108.456 78.5551 108.691C78.322 108.926 78.0054 109.06 77.6743 109.063Z" fill="white"/>
<path d="M77.1162 114.595H61.6228C60.556 114.595 59.533 114.172 58.7787 113.417C58.0243 112.663 57.6006 111.64 57.6006 110.573C57.6006 109.506 58.0243 108.483 58.7787 107.729C59.533 106.975 60.556 106.551 61.6228 106.551H77.1162C78.183 106.551 79.2061 106.975 79.9604 107.729C80.7147 108.483 81.1384 109.506 81.1384 110.573C81.1384 111.64 80.7147 112.663 79.9604 113.417C79.2061 114.172 78.183 114.595 77.1162 114.595ZM61.6228 109.063C61.2222 109.063 60.8381 109.222 60.5548 109.505C60.2716 109.788 60.1125 110.173 60.1125 110.573C60.1125 110.974 60.2716 111.358 60.5548 111.641C60.8381 111.924 61.2222 112.083 61.6228 112.083H77.1162C77.5168 112.083 77.9009 111.924 78.1842 111.641C78.4674 111.358 78.6265 110.974 78.6265 110.573C78.6265 110.173 78.4674 109.788 78.1842 109.505C77.9009 109.222 77.5168 109.063 77.1162 109.063H61.6228ZM69.3695 60.8581C69.0364 60.8581 68.717 60.7258 68.4814 60.4902C68.2459 60.2547 68.1136 59.9352 68.1136 59.6021V57.0802C68.1136 56.7471 68.2459 56.4276 68.4814 56.1921C68.717 55.9565 69.0364 55.8242 69.3695 55.8242C69.7026 55.8242 70.0221 55.9565 70.2576 56.1921C70.4931 56.4276 70.6255 56.7471 70.6255 57.0802V59.6021C70.6255 59.9352 70.4931 60.2547 70.2576 60.4902C70.0221 60.7258 69.7026 60.8581 69.3695 60.8581ZM97.744 85.4497H95.2208C94.8877 85.4497 94.5683 85.3174 94.3327 85.0818C94.0972 84.8463 93.9649 84.5268 93.9649 84.1937C93.9649 83.8606 94.0972 83.5412 94.3327 83.3056C94.5683 83.0701 94.8877 82.9378 95.2208 82.9378H97.744C98.0771 82.9378 98.3966 83.0701 98.6321 83.3056C98.8677 83.5412 99 83.8606 99 84.1937C99 84.5268 98.8677 84.8463 98.6321 85.0818C98.3966 85.3174 98.0771 85.4497 97.744 85.4497ZM44.7779 86.7107H42.256C41.9229 86.7107 41.6034 86.5783 41.3679 86.3428C41.1323 86.1073 41 85.7878 41 85.4547C41 85.1216 41.1323 84.8022 41.3679 84.5666C41.6034 84.3311 41.9229 84.1988 42.256 84.1988H44.7779C45.111 84.1988 45.4305 84.3311 45.666 84.5666C45.9015 84.8022 46.0339 85.1216 46.0339 85.4547C46.0339 85.7878 45.9015 86.1073 45.666 86.3428C45.4305 86.5783 45.111 86.7107 44.7779 86.7107ZM87.3347 68.2996C87.0863 68.2996 86.8436 68.2259 86.6371 68.0879C86.4306 67.9499 86.2696 67.7537 86.1746 67.5243C86.0796 67.2948 86.0547 67.0423 86.1031 66.7987C86.1516 66.5551 86.2711 66.3314 86.4467 66.1557L88.2302 64.3722C88.346 64.2523 88.4846 64.1566 88.6379 64.0908C88.7911 64.025 88.9559 63.9903 89.1227 63.9889C89.2894 63.9874 89.4548 64.0192 89.6092 64.0823C89.7635 64.1455 89.9038 64.2388 90.0217 64.3567C90.1396 64.4746 90.2329 64.6148 90.296 64.7692C90.3592 64.9235 90.3909 65.0889 90.3895 65.2557C90.388 65.4225 90.3534 65.5873 90.2876 65.7405C90.2217 65.8937 90.1261 66.0323 90.0061 66.1482L88.2239 67.9316C88.1072 68.0484 87.9685 68.141 87.8159 68.2042C87.6634 68.2673 87.4998 68.2998 87.3347 68.2996ZM51.4043 68.2996C51.2393 68.3001 51.0759 68.2678 50.9235 68.2046C50.7711 68.1414 50.6327 68.0487 50.5164 67.9316L48.7317 66.1482C48.4962 65.9125 48.3639 65.5929 48.364 65.2598C48.3642 64.9266 48.4966 64.6071 48.7323 64.3716C48.968 64.1361 49.2875 64.0039 49.6207 64.004C49.9539 64.0041 50.2733 64.1366 50.5088 64.3722L52.2923 66.1557C52.4679 66.3314 52.5875 66.5551 52.6359 66.7987C52.6843 67.0423 52.6595 67.2948 52.5644 67.5243C52.4694 67.7537 52.3085 67.9499 52.102 68.0879C51.8955 68.2259 51.6527 68.2996 51.4043 68.2996ZM71.8965 101.213H66.8476C66.5145 101.213 66.195 101.081 65.9595 100.845C65.7239 100.61 65.5916 100.29 65.5916 99.9572V98.17C64.5498 97.8767 63.5464 97.461 62.6024 96.9316L61.3465 98.1964C61.1109 98.4318 60.7915 98.5641 60.4585 98.5641C60.1255 98.5641 59.8061 98.4318 59.5706 98.1964L55.9974 94.6332C55.7619 94.3977 55.6296 94.0783 55.6296 93.7453C55.6296 93.4122 55.7619 93.0928 55.9974 92.8573L57.2621 91.5913C56.733 90.648 56.3174 89.6455 56.0237 88.6046H54.2365C53.9034 88.6046 53.584 88.4723 53.3484 88.2368C53.1129 88.0013 52.9806 87.6818 52.9806 87.3487V82.3023C52.9806 81.9692 53.1129 81.6497 53.3484 81.4142C53.584 81.1786 53.9034 81.0463 54.2365 81.0463H56.0237C56.3171 80.0037 56.7328 78.9995 57.2621 78.0546L55.9974 76.7987C55.7619 76.5631 55.6296 76.2437 55.6296 75.9107C55.6296 75.5777 55.7619 75.2583 55.9974 75.0227L59.5643 71.4558C59.7998 71.2204 60.1192 71.0881 60.4522 71.0881C60.7853 71.0881 61.1047 71.2204 61.3402 71.4558L62.6024 72.7168C63.5457 72.1878 64.5482 71.7722 65.5891 71.4784V69.6912C65.5891 69.3581 65.7214 69.0387 65.9569 68.8031C66.1925 68.5676 66.5119 68.4353 66.845 68.4353H71.8965C72.2296 68.4353 72.549 68.5676 72.7846 68.8031C73.0201 69.0387 73.1524 69.3581 73.1524 69.6912V71.4784C74.1929 71.7722 75.195 72.1878 76.1379 72.7168L77.4039 71.4521C77.6394 71.2166 77.9588 71.0843 78.2918 71.0843C78.6249 71.0843 78.9442 71.2166 79.1798 71.4521L82.7467 75.019C82.9821 75.2545 83.1144 75.5739 83.1144 75.9069C83.1144 76.24 82.9821 76.5594 82.7467 76.7949L81.4769 78.0546C82.0059 78.9979 82.4216 80.0004 82.7153 81.0413H84.5025C84.8356 81.0413 85.1551 81.1736 85.3906 81.4091C85.6261 81.6447 85.7585 81.9641 85.7585 82.2972V87.3487C85.7585 87.6818 85.6261 88.0013 85.3906 88.2368C85.1551 88.4723 84.8356 88.6046 84.5025 88.6046H82.7153C82.4216 89.6451 82.0059 90.6472 81.4769 91.59L82.7417 92.8561C82.9771 93.0916 83.1094 93.411 83.1094 93.744C83.1094 94.077 82.9771 94.3964 82.7417 94.632L79.181 98.1964C78.9455 98.4318 78.6261 98.5641 78.2931 98.5641C77.96 98.5641 77.6406 98.4318 77.4051 98.1964L76.1328 96.9316C75.1915 97.4602 74.1912 97.8759 73.1524 98.17V99.9572C73.1524 100.29 73.0201 100.61 72.7846 100.845C72.549 101.081 72.2296 101.213 71.8965 101.213ZM68.1085 98.7013H70.6405V97.1828C70.6405 96.8933 70.7405 96.6126 70.9236 96.3883C71.1066 96.164 71.3616 96.0099 71.6453 95.952C73.0688 95.6632 74.423 95.1015 75.633 94.2979C75.8745 94.1376 76.164 94.0658 76.4524 94.0946C76.7409 94.1235 77.0105 94.2512 77.2155 94.4561L78.2906 95.5325L80.0803 93.7415L79.0052 92.6664C78.8003 92.4614 78.6725 92.1918 78.6437 91.9034C78.6148 91.615 78.6866 91.3254 78.8469 91.0839C79.6491 89.874 80.2095 88.5203 80.4973 87.0975C80.5551 86.814 80.7091 86.5592 80.9331 86.3761C81.1572 86.1931 81.4375 86.093 81.7268 86.0927H83.2466V83.5582H81.7268C81.4375 83.558 81.1572 83.4579 80.9331 83.2748C80.7091 83.0917 80.5551 82.8369 80.4973 82.5535C80.2085 81.1295 79.6468 79.775 78.8432 78.5645C78.6832 78.3231 78.6116 78.0339 78.6404 77.7457C78.6693 77.4576 78.7968 77.1882 79.0014 76.9833L80.0765 75.9082L78.2868 74.1172L77.2117 75.1923C77.0069 75.3974 76.7373 75.5254 76.4489 75.5545C76.1605 75.5835 75.8708 75.5119 75.6292 75.3518C74.4204 74.5482 73.0676 73.9861 71.6453 73.6965C71.3616 73.6386 71.1066 73.4844 70.9236 73.2601C70.7405 73.0358 70.6405 72.7552 70.6405 72.4656V70.9472H68.1035V72.4656C68.1036 72.7552 68.0036 73.0358 67.8205 73.2601C67.6374 73.4844 67.3824 73.6386 67.0987 73.6965C65.673 73.9844 64.3166 74.5461 63.1048 75.3506C62.8633 75.5104 62.5739 75.5818 62.2857 75.5527C61.9976 75.5236 61.7283 75.3959 61.5236 75.191L60.4485 74.1159L58.6612 75.9069L59.7363 76.982C59.9412 77.1868 60.0689 77.4561 60.098 77.7442C60.1271 78.0324 60.0557 78.3217 59.8958 78.5633C59.0922 79.7737 58.5305 81.1283 58.2417 82.5522C58.1838 82.8359 58.0297 83.0909 57.8054 83.2739C57.5811 83.457 57.3004 83.557 57.0109 83.557H55.4925V86.0927H57.0109C57.3004 86.0927 57.5811 86.1927 57.8054 86.3758C58.0297 86.5588 58.1838 86.8138 58.2417 87.0975C58.5305 88.521 59.0922 89.8752 59.8958 91.0852C60.056 91.3268 60.1276 91.6164 60.0985 91.9049C60.0694 92.1933 59.9415 92.4628 59.7363 92.6677L58.6612 93.7428L60.4522 95.5338L61.5273 94.4574C61.7318 94.2535 62.0004 94.1263 62.2877 94.0973C62.575 94.0682 62.8636 94.1391 63.1048 94.2979C64.3151 95.1017 65.6697 95.6634 67.0937 95.952C67.3774 96.0099 67.6324 96.164 67.8155 96.3883C67.9986 96.6126 68.0985 96.8933 68.0985 97.1828L68.1085 98.7013Z" fill="white"/>
<path d="M69.3693 93.6462C67.6241 93.6464 65.9181 93.1291 64.467 92.1597C63.0158 91.1903 61.8847 89.8124 61.2168 88.2001C60.5488 86.5879 60.374 84.8137 60.7144 83.1021C61.0548 81.3905 61.8951 79.8182 63.1291 78.5842C64.3632 77.3502 65.9354 76.5099 67.647 76.1695C69.3586 75.8291 71.1328 76.0039 72.745 76.6719C74.3573 77.3398 75.7353 78.4709 76.7047 79.922C77.6741 81.3732 78.1913 83.0792 78.1911 84.8243C78.1884 87.1632 77.2581 89.4055 75.6043 91.0594C73.9505 92.7132 71.7081 93.6435 69.3693 93.6462ZM69.3693 78.5132C68.121 78.5129 66.9007 78.8829 65.8626 79.5762C64.8246 80.2695 64.0155 81.2551 63.5376 82.4083C63.0597 83.5615 62.9346 84.8305 63.178 86.0548C63.4213 87.2792 64.0223 88.4038 64.9049 89.2866C65.7875 90.1693 66.912 90.7705 68.1363 91.0142C69.3606 91.2578 70.6296 91.1329 71.7829 90.6552C72.9362 90.1776 73.9219 89.3687 74.6155 88.3308C75.309 87.2929 75.6792 86.0726 75.6792 84.8243C75.6775 83.1512 75.0122 81.5471 73.8293 80.3639C72.6463 79.1808 71.0424 78.5152 69.3693 78.5132Z" fill="white"/>
<circle cx="7.45833" cy="25.3665" r="6.45833" fill="#D4B76E"/>
<circle cx="28.7721" cy="4.05339" r="3.22917" fill="#D4B76E"/>
<circle cx="132.229" cy="140.053" r="3.22917" fill="#D4B76E"/>
</svg>
