<svg width="106" height="119" viewBox="0 0 106 119" fill="none" xmlns="http://www.w3.org/2000/svg">
<circle cx="52.5217" cy="66.1243" r="52.5217" fill="white"/>
<path d="M54.1732 90.1599H50.6727C49.295 90.1541 47.9697 89.6307 46.9598 88.6935C45.9499 87.7562 45.3292 86.4736 45.2209 85.1C45.2116 84.9754 45.227 84.8501 45.2661 84.7314C45.3052 84.6127 45.3673 84.5029 45.4489 84.4082C45.5305 84.3135 45.6299 84.2358 45.7415 84.1795C45.8531 84.1232 45.9747 84.0895 46.0993 84.0802C46.224 84.0709 46.3492 84.0863 46.4679 84.1254C46.5866 84.1645 46.6965 84.2266 46.7912 84.3082C46.8859 84.3897 46.9636 84.4892 47.0199 84.6008C47.0762 84.7124 47.1099 84.834 47.1192 84.9586C47.1898 85.8543 47.5942 86.6908 48.2523 87.3026C48.9105 87.9143 49.7743 88.2565 50.6727 88.2616H54.1732C55.0733 88.2589 55.9394 87.9177 56.5996 87.3058C57.2597 86.6938 57.6654 85.8559 57.7362 84.9586C57.743 84.8325 57.7749 84.709 57.83 84.5953C57.8851 84.4816 57.9624 84.3801 58.0572 84.2967C58.1521 84.2133 58.2626 84.1496 58.3824 84.1095C58.5022 84.0694 58.6287 84.0535 58.7547 84.063C58.8807 84.0724 59.0035 84.1068 59.116 84.1643C59.2285 84.2218 59.3283 84.3012 59.4097 84.3978C59.4911 84.4944 59.5525 84.6062 59.5901 84.7268C59.6277 84.8474 59.6408 84.9743 59.6288 85.1C59.5206 86.4743 58.8995 87.7576 57.8887 88.695C56.878 89.6324 55.5517 90.1553 54.1732 90.1599ZM58.6986 81.797C58.4469 81.797 58.2055 81.697 58.0275 81.519C57.8495 81.341 57.7495 81.0996 57.7495 80.8479V80.8099C57.7447 79.826 57.9852 78.8564 58.4492 77.9887C58.9132 77.121 59.5861 76.3826 60.4071 75.8403C62.4209 74.5202 64.0741 72.7193 65.2175 70.6002C66.3609 68.4811 66.9584 66.1106 66.9561 63.7027C66.9561 55.7974 60.5267 49.2825 52.6242 49.1809C48.7327 49.1325 45.0596 50.6312 42.252 53.4027C39.4445 56.1742 37.9002 59.8312 37.9002 63.7027C37.8983 66.0989 38.4902 68.4583 39.6229 70.5699C40.7557 72.6815 42.394 74.4795 44.3914 75.8032C45.221 76.3494 45.9024 77.0924 46.3749 77.9661C46.8475 78.8397 47.0963 79.8167 47.0993 80.8099V80.8479C47.0993 81.0996 46.9993 81.341 46.8213 81.519C46.6433 81.697 46.4018 81.797 46.1501 81.797C45.8984 81.797 45.657 81.697 45.479 81.519C45.301 81.341 45.201 81.0996 45.201 80.8479V80.8099C45.1979 80.1296 45.0262 79.4607 44.7015 78.863C44.3767 78.2652 43.9088 77.7573 43.3397 77.3845C41.0817 75.8875 39.2298 73.8544 37.9493 71.4669C36.6689 69.0794 35.9998 66.4119 36.002 63.7027C36.002 59.3196 37.7484 55.1814 40.9185 52.0521C44.0886 48.9228 48.2581 47.2267 52.6375 47.2836C56.1527 47.3289 59.5605 48.5011 62.3597 50.6278C65.1589 52.7546 67.2017 55.7236 68.1874 59.098C69.1732 62.4725 69.0499 66.0742 67.8358 69.3734C66.6216 72.6725 64.3806 75.4949 61.4426 77.4253C60.8846 77.7954 60.4276 78.2986 60.1127 78.8895C59.7979 79.4804 59.6352 80.1404 59.6392 80.8099V80.8479C59.6392 81.0982 59.5404 81.3383 59.3643 81.516C59.1881 81.6938 58.9489 81.7948 58.6986 81.797Z" fill="#D4B76E"/>
<path d="M58.2777 85.9783H46.5692C45.763 85.9783 44.9899 85.6581 44.4199 85.088C43.8498 84.518 43.5296 83.7449 43.5296 82.9387C43.5296 82.1325 43.8498 81.3594 44.4199 80.7894C44.9899 80.2193 45.763 79.8991 46.5692 79.8991H58.2777C59.0839 79.8991 59.857 80.2193 60.427 80.7894C60.9971 81.3594 61.3173 82.1325 61.3173 82.9387C61.3173 83.7449 60.9971 84.518 60.427 85.088C59.857 85.6581 59.0839 85.9783 58.2777 85.9783ZM46.5692 81.7974C46.2665 81.7974 45.9762 81.9176 45.7621 82.1317C45.5481 82.3457 45.4278 82.636 45.4278 82.9387C45.4278 83.2414 45.5481 83.5317 45.7621 83.7458C45.9762 83.9598 46.2665 84.08 46.5692 84.08H58.2777C58.5804 84.08 58.8707 83.9598 59.0848 83.7458C59.2988 83.5317 59.4191 83.2414 59.4191 82.9387C59.4191 82.636 59.2988 82.3457 59.0848 82.1317C58.8707 81.9176 58.5804 81.7974 58.2777 81.7974H46.5692ZM52.4235 45.3686C52.1717 45.3686 51.9303 45.2686 51.7523 45.0906C51.5743 44.9126 51.4743 44.6712 51.4743 44.4195V42.5136C51.4743 42.2619 51.5743 42.0204 51.7523 41.8424C51.9303 41.6645 52.1717 41.5645 52.4235 41.5645C52.6752 41.5645 52.9166 41.6645 53.0946 41.8424C53.2726 42.0204 53.3726 42.2619 53.3726 42.5136V44.4195C53.3726 44.6712 53.2726 44.9126 53.0946 45.0906C52.9166 45.2686 52.6752 45.3686 52.4235 45.3686ZM73.8663 63.9527H71.9595C71.7078 63.9527 71.4664 63.8527 71.2884 63.6747C71.1104 63.4967 71.0104 63.2553 71.0104 63.0035C71.0104 62.7518 71.1104 62.5104 71.2884 62.3324C71.4664 62.1544 71.7078 62.0544 71.9595 62.0544H73.8663C74.118 62.0544 74.3595 62.1544 74.5375 62.3324C74.7155 62.5104 74.8155 62.7518 74.8155 63.0035C74.8155 63.2553 74.7155 63.4967 74.5375 63.6747C74.3595 63.8527 74.118 63.9527 73.8663 63.9527ZM33.8394 64.9056H31.9335C31.6818 64.9056 31.4404 64.8056 31.2624 64.6276C31.0844 64.4496 30.9844 64.2082 30.9844 63.9565C30.9844 63.7047 31.0844 63.4633 31.2624 63.2853C31.4404 63.1073 31.6818 63.0073 31.9335 63.0073H33.8394C34.0911 63.0073 34.3325 63.1073 34.5105 63.2853C34.6885 63.4633 34.7885 63.7047 34.7885 63.9565C34.7885 64.2082 34.6885 64.4496 34.5105 64.6276C34.3325 64.8056 34.0911 64.9056 33.8394 64.9056ZM65.9999 50.9922C65.8122 50.9922 65.6287 50.9365 65.4727 50.8322C65.3166 50.7279 65.195 50.5797 65.1232 50.4063C65.0514 50.2329 65.0326 50.0421 65.0692 49.858C65.1058 49.6739 65.1962 49.5048 65.3288 49.372L66.6766 48.0243C66.7642 47.9336 66.8689 47.8613 66.9847 47.8116C67.1005 47.7618 67.225 47.7356 67.3511 47.7345C67.4771 47.7335 67.6021 47.7575 67.7187 47.8052C67.8354 47.8529 67.9413 47.9234 68.0305 48.0125C68.1196 48.1016 68.1901 48.2076 68.2378 48.3242C68.2855 48.4409 68.3095 48.5659 68.3084 48.6919C68.3073 48.8179 68.2811 48.9425 68.2314 49.0583C68.1817 49.1741 68.1094 49.2788 68.0187 49.3663L66.6719 50.7141C66.5836 50.8024 66.4789 50.8724 66.3636 50.9201C66.2483 50.9678 66.1247 50.9923 65.9999 50.9922ZM38.847 50.9922C38.7223 50.9926 38.5988 50.9682 38.4836 50.9204C38.3684 50.8727 38.2639 50.8026 38.176 50.7141L36.8273 49.3663C36.6493 49.1883 36.5494 48.9468 36.5494 48.695C36.5495 48.4432 36.6496 48.2018 36.8277 48.0238C37.0058 47.8458 37.2473 47.7459 37.4991 47.746C37.7509 47.7461 37.9923 47.8462 38.1703 48.0243L39.5181 49.372C39.6508 49.5048 39.7411 49.6739 39.7777 49.858C39.8143 50.0421 39.7955 50.2329 39.7237 50.4063C39.6519 50.5797 39.5303 50.7279 39.3742 50.8322C39.2182 50.9365 39.0347 50.9922 38.847 50.9922ZM54.3331 75.8653H50.5176C50.2659 75.8653 50.0244 75.7653 49.8464 75.5873C49.6684 75.4093 49.5685 75.1679 49.5685 74.9161V73.5655C48.7812 73.3439 48.0229 73.0297 47.3095 72.6297L46.3604 73.5854C46.1824 73.7634 45.941 73.8633 45.6893 73.8633C45.4377 73.8633 45.1963 73.7634 45.0183 73.5854L42.318 70.8927C42.1401 70.7148 42.0401 70.4734 42.0401 70.2217C42.0401 69.97 42.1401 69.7287 42.318 69.5507L43.2738 68.5939C42.874 67.8811 42.5598 67.1235 42.3379 66.3369H40.9873C40.7356 66.3369 40.4942 66.2369 40.3162 66.0589C40.1382 65.8809 40.0382 65.6395 40.0382 65.3878V61.5741C40.0382 61.3224 40.1382 61.081 40.3162 60.903C40.4942 60.725 40.7356 60.625 40.9873 60.625H42.3379C42.5596 59.8371 42.8738 59.0782 43.2738 58.3642L42.318 57.415C42.1401 57.237 42.0401 56.9957 42.0401 56.744C42.0401 56.4923 42.1401 56.2509 42.318 56.0729L45.0135 53.3774C45.1915 53.1995 45.4329 53.0995 45.6846 53.0995C45.9363 53.0995 46.1776 53.1995 46.3556 53.3774L47.3095 54.3303C48.0224 53.9306 48.78 53.6164 49.5666 53.3945V52.0439C49.5666 51.7921 49.6666 51.5507 49.8445 51.3727C50.0225 51.1947 50.264 51.0947 50.5157 51.0947H54.3331C54.5848 51.0947 54.8263 51.1947 55.0043 51.3727C55.1823 51.5507 55.2822 51.7921 55.2822 52.0439V53.3945C56.0685 53.6165 56.8258 53.9306 57.5383 54.3303L58.4951 53.3745C58.6731 53.1966 58.9144 53.0967 59.1661 53.0967C59.4178 53.0967 59.6592 53.1966 59.8371 53.3745L62.5327 56.0701C62.7106 56.2481 62.8106 56.4895 62.8106 56.7411C62.8106 56.9928 62.7106 57.2342 62.5327 57.4122L61.5731 58.3642C61.9729 59.077 62.287 59.8346 62.509 60.6212H63.8596C64.1113 60.6212 64.3527 60.7212 64.5307 60.8992C64.7087 61.0772 64.8087 61.3186 64.8087 61.5703V65.3878C64.8087 65.6395 64.7087 65.8809 64.5307 66.0589C64.3527 66.2369 64.1113 66.3369 63.8596 66.3369H62.509C62.287 67.1232 61.9729 67.8805 61.5731 68.593L62.5289 69.5497C62.7068 69.7277 62.8068 69.9691 62.8068 70.2208C62.8068 70.4724 62.7068 70.7138 62.5289 70.8918L59.8381 73.5854C59.6601 73.7634 59.4187 73.8633 59.1671 73.8633C58.9154 73.8633 58.674 73.7634 58.496 73.5854L57.5345 72.6297C56.8232 73.0291 56.0672 73.3433 55.2822 73.5655V74.9161C55.2822 75.1679 55.1823 75.4093 55.0043 75.5873C54.8263 75.7653 54.5848 75.8653 54.3331 75.8653ZM51.4705 73.967H53.384V72.8195C53.3839 72.6007 53.4595 72.3886 53.5979 72.2191C53.7362 72.0496 53.9289 71.9331 54.1433 71.8893C55.2191 71.6711 56.2424 71.2466 57.1568 70.6393C57.3393 70.5182 57.5581 70.4639 57.7761 70.4857C57.9941 70.5075 58.1978 70.604 58.3527 70.7589L59.1652 71.5723L60.5177 70.2189L59.7052 69.4064C59.5503 69.2515 59.4538 69.0478 59.432 68.8298C59.4102 68.6118 59.4645 68.393 59.5856 68.2105C60.1918 67.2962 60.6153 66.2732 60.8328 65.1979C60.8765 64.9837 60.9929 64.7911 61.1622 64.6528C61.3315 64.5145 61.5434 64.4388 61.762 64.4386H62.9104V62.5233H61.762C61.5434 62.5231 61.3315 62.4474 61.1622 62.3091C60.9929 62.1707 60.8765 61.9782 60.8328 61.764C60.6146 60.6879 60.1901 59.6642 59.5828 58.7495C59.4619 58.5671 59.4078 58.3485 59.4296 58.1307C59.4514 57.9129 59.5477 57.7094 59.7024 57.5545L60.5148 56.7421L59.1623 55.3886L58.3499 56.2011C58.1951 56.3561 57.9914 56.4528 57.7734 56.4748C57.5554 56.4967 57.3366 56.4426 57.1539 56.3216C56.2405 55.7143 55.2181 55.2895 54.1433 55.0707C53.9289 55.0269 53.7362 54.9104 53.5979 54.7409C53.4595 54.5714 53.3839 54.3593 53.384 54.1405V52.993H51.4667V54.1405C51.4668 54.3593 51.3912 54.5714 51.2528 54.7409C51.1145 54.9104 50.9218 55.0269 50.7074 55.0707C49.63 55.2882 48.605 55.7127 47.6892 56.3207C47.5066 56.4414 47.288 56.4954 47.0702 56.4734C46.8524 56.4515 46.6489 56.3549 46.4942 56.2001L45.6817 55.3877L44.3311 56.7411L45.1436 57.5536C45.2984 57.7083 45.3949 57.9118 45.4169 58.1296C45.4389 58.3474 45.3849 58.566 45.2641 58.7486C44.6568 59.6633 44.2323 60.6869 44.0141 61.763C43.9703 61.9774 43.8539 62.1701 43.6844 62.3084C43.5149 62.4468 43.3028 62.5224 43.084 62.5223H41.9365V64.4386H43.084C43.3028 64.4386 43.5149 64.5141 43.6844 64.6525C43.8539 64.7909 43.9703 64.9835 44.0141 65.1979C44.2323 66.2737 44.6568 67.297 45.2641 68.2114C45.3851 68.3941 45.4392 68.6129 45.4173 68.8309C45.3953 69.0489 45.2986 69.2525 45.1436 69.4074L44.3311 70.2198L45.6846 71.5733L46.497 70.7599C46.6516 70.6058 46.8545 70.5097 47.0717 70.4877C47.2888 70.4658 47.5069 70.5193 47.6892 70.6393C48.6038 71.2468 49.6275 71.6713 50.7036 71.8893C50.918 71.9331 51.1107 72.0496 51.249 72.2191C51.3874 72.3886 51.463 72.6007 51.4629 72.8195L51.4705 73.967Z" fill="#D4B76E"/>
<path d="M52.4225 70.1469C51.1037 70.1471 49.8145 69.7562 48.7178 69.0236C47.6212 68.291 46.7664 67.2497 46.2616 66.0313C45.7569 64.8129 45.6247 63.4721 45.882 62.1786C46.1392 60.8851 46.7743 59.697 47.7068 58.7644C48.6394 57.8319 49.8275 57.1968 51.121 56.9396C52.4145 56.6824 53.7552 56.8145 54.9736 57.3193C56.192 57.824 57.2334 58.6788 57.966 59.7754C58.6985 60.8721 59.0895 62.1613 59.0893 63.4802C59.0873 65.2477 58.3842 66.9422 57.1344 68.192C55.8846 69.4418 54.19 70.1449 52.4225 70.1469ZM52.4225 58.7107C51.4792 58.7106 50.557 58.9901 49.7725 59.5141C48.9881 60.038 48.3766 60.7828 48.0155 61.6543C47.6544 62.5258 47.5598 63.4848 47.7437 64.41C47.9276 65.3353 48.3818 66.1852 49.0488 66.8523C49.7157 67.5194 50.5656 67.9737 51.4908 68.1578C52.416 68.342 53.375 68.2476 54.2465 67.8866C55.1181 67.5256 55.863 66.9143 56.3871 66.13C56.9113 65.3456 57.191 64.4235 57.191 63.4802C57.1897 62.2158 56.687 61.0035 55.793 60.1094C54.8991 59.2153 53.6869 58.7123 52.4225 58.7107Z" fill="#D4B76E"/>
<circle cx="5.63648" cy="18.5466" r="4.88062" fill="white"/>
<circle cx="21.743" cy="2.44031" r="2.44031" fill="white"/>
<circle cx="99.9266" cy="105.217" r="2.44031" fill="white"/>
</svg>
