<svg width="223" height="69" viewBox="0 0 223 69" fill="none" xmlns="http://www.w3.org/2000/svg">
<path d="M208.137 8.34892C208.137 4.74184 211.061 1.81773 214.668 1.81773C218.275 1.81773 221.199 4.74184 221.199 8.34892C221.199 11.956 218.275 14.8801 214.668 14.8801C211.061 14.8801 208.137 11.956 208.137 8.34892Z" stroke="#D4B76E" stroke-width="1.98783"/>
<path d="M156.352 8.34892C156.352 4.74184 159.276 1.81773 162.883 1.81773C166.49 1.81773 169.414 4.74184 169.414 8.34892C169.414 11.956 166.49 14.8801 162.883 14.8801C159.276 14.8801 156.352 11.956 156.352 8.34892Z" stroke="#D4B76E" stroke-width="1.98783"/>
<path d="M104.565 8.34892C104.565 4.74184 107.489 1.81773 111.096 1.81773C114.703 1.81773 117.627 4.74184 117.627 8.34892C117.627 11.956 114.703 14.8801 111.096 14.8801C107.489 14.8801 104.565 11.956 104.565 8.34892Z" stroke="#D4B76E" stroke-width="1.98783"/>
<path d="M52.7796 8.34892C52.7796 4.74184 55.7038 1.81773 59.3108 1.81773C62.9179 1.81773 65.842 4.74184 65.842 8.34892C65.842 11.956 62.9179 14.8801 59.3108 14.8801C55.7038 14.8801 52.7796 11.956 52.7796 8.34892Z" stroke="#D4B76E" stroke-width="1.98783"/>
<path d="M0.994488 8.34892C0.994488 4.74184 3.9186 1.81773 7.52568 1.81773C11.1328 1.81773 14.0569 4.74184 14.0569 8.34892C14.0569 11.956 11.1328 14.8801 7.52568 14.8801C3.9186 14.8801 0.994488 11.956 0.994488 8.34892Z" stroke="#D4B76E" stroke-width="1.98783"/>
<path d="M208.137 60.8284C208.137 57.2213 211.061 54.2972 214.668 54.2972C218.275 54.2972 221.199 57.2213 221.199 60.8284C221.199 64.4355 218.275 67.3596 214.668 67.3596C211.061 67.3596 208.137 64.4355 208.137 60.8284Z" stroke="#D4B76E" stroke-width="1.98783"/>
<path d="M156.352 60.8284C156.352 57.2213 159.276 54.2972 162.883 54.2972C166.49 54.2972 169.414 57.2213 169.414 60.8284C169.414 64.4355 166.49 67.3596 162.883 67.3596C159.276 67.3596 156.352 64.4355 156.352 60.8284Z" stroke="#D4B76E" stroke-width="1.98783"/>
<path d="M104.565 60.8284C104.565 57.2213 107.489 54.2972 111.096 54.2972C114.703 54.2972 117.627 57.2213 117.627 60.8284C117.627 64.4355 114.703 67.3596 111.096 67.3596C107.489 67.3596 104.565 64.4355 104.565 60.8284Z" stroke="#D4B76E" stroke-width="1.98783"/>
<path d="M52.7796 60.8284C52.7796 57.2213 55.7038 54.2972 59.3108 54.2972C62.9179 54.2972 65.842 57.2213 65.842 60.8284C65.842 64.4355 62.9179 67.3596 59.3108 67.3596C55.7038 67.3596 52.7796 64.4355 52.7796 60.8284Z" stroke="#D4B76E" stroke-width="1.98783"/>
<path d="M0.994488 60.8284C0.994488 57.2213 3.9186 54.2972 7.52568 54.2972C11.1328 54.2972 14.0569 57.2213 14.0569 60.8284C14.0569 64.4355 11.1328 67.3596 7.52568 67.3596C3.9186 67.3596 0.994488 64.4355 0.994488 60.8284Z" stroke="#D4B76E" stroke-width="1.98783"/>
</svg>
