<svg width="52" height="40" viewBox="0 0 52 40" fill="none" xmlns="http://www.w3.org/2000/svg">
<path d="M26.9077 3.37904C33.538 3.37904 38.9601 3.49073 43.976 3.71411H44.1181C46.4636 3.71411 48.3826 5.9479 48.3826 8.69953V8.81122L48.3928 8.92291C48.6263 12.3751 48.738 15.9594 48.738 19.574C48.7481 23.1887 48.6263 26.7729 48.3928 30.2252L48.3826 30.3369V30.4486C48.3826 31.8497 47.9054 33.1494 47.022 34.114C46.2301 34.9872 45.1944 35.4746 44.1181 35.4746H43.9556C38.5844 35.7284 32.9085 35.8604 27.06 35.8604H25.9838H25.9939H24.8872C19.0184 35.8604 13.3425 35.7284 8.01188 35.4847H7.84943C6.77314 35.4847 5.74763 34.9974 4.95565 34.1242C4.08244 33.1596 3.59507 31.8599 3.59507 30.4587V30.347L3.58491 30.2353C3.34122 26.7729 3.22954 23.1887 3.24984 19.6045V19.5842C3.23969 16 3.35138 12.4259 3.58491 8.96352L3.59507 8.85183V8.74014C3.59507 5.97836 5.50394 3.73441 7.84943 3.73441H7.99158C13.0176 3.50088 18.4396 3.39934 25.0699 3.39934H26.9077M26.9077 0.129883H25.0801C19.2316 0.129883 13.4847 0.211112 7.85958 0.464952C3.71691 0.464952 0.356065 4.15071 0.356065 8.71983C0.102225 12.3548 -0.00946508 15.9695 0.000688523 19.5943C-0.00946508 23.2192 0.092071 26.8339 0.345911 30.4587C0.345911 35.0278 3.70675 38.744 7.84943 38.744C13.4136 39.008 19.0895 39.1299 24.8872 39.1299H27.0804C32.8781 39.1299 38.5539 39.008 44.1283 38.744C48.2811 38.744 51.6419 35.0278 51.6419 30.4587C51.8856 26.8339 51.9973 23.209 51.9871 19.5842C51.9973 15.9594 51.8856 12.3447 51.6419 8.70968C51.6419 4.14056 48.2811 0.475106 44.1283 0.475106C38.5032 0.211112 32.7664 0.129883 26.9077 0.129883Z" fill="#5E5E5E"/>
<path d="M21.0176 29.555V9.61328L35.7403 19.5841L21.0176 29.555Z" fill="#5E5E5E"/>
</svg>
