<svg width="512" height="512" viewBox="0 0 512 512" fill="none" xmlns="http://www.w3.org/2000/svg">
<path d="M110.569 100.442V17.1219H204.032V250.895L181.993 267.535V187.407L110.569 223.39V129.385" fill="#F7D352"/>
<path d="M181.993 271.3C181.498 271.303 181.007 271.207 180.549 271.019C180.091 270.831 179.675 270.554 179.325 270.204C178.974 269.854 178.697 269.437 178.509 268.979C178.321 268.521 178.226 268.03 178.229 267.535V193.521L112.264 226.748C111.689 227.035 111.051 227.171 110.409 227.143C109.768 227.114 109.144 226.922 108.597 226.585C108.051 226.248 107.599 225.777 107.285 225.216C106.972 224.656 106.806 224.025 106.805 223.383V129.393C106.805 128.394 107.201 127.437 107.907 126.731C108.613 126.025 109.571 125.628 110.569 125.628C111.568 125.628 112.525 126.025 113.231 126.731C113.937 127.437 114.334 128.394 114.334 129.393V217.284L180.307 184.049C180.881 183.761 181.519 183.625 182.16 183.654C182.801 183.682 183.425 183.874 183.971 184.211C184.517 184.549 184.968 185.02 185.281 185.581C185.594 186.141 185.758 186.773 185.758 187.415V259.983L200.267 249.028V20.8866H114.334V100.457C114.334 101.456 113.937 102.413 113.231 103.119C112.525 103.825 111.568 104.222 110.569 104.222C109.571 104.222 108.613 103.825 107.907 103.119C107.201 102.413 106.805 101.456 106.805 100.457V17.1219C106.805 16.1234 107.201 15.1659 107.907 14.4598C108.613 13.7538 109.571 13.3572 110.569 13.3572H204.032C205.03 13.3572 205.988 13.7538 206.694 14.4598C207.4 15.1659 207.797 16.1234 207.797 17.1219V250.895C207.797 251.477 207.663 252.051 207.404 252.572C207.146 253.094 206.77 253.548 206.306 253.899L184.267 270.539C183.612 271.033 182.814 271.3 181.993 271.3Z" fill="black"/>
<path d="M401.438 17.1219V226.01L330.014 261.993V187.407L307.976 198.498V17.1144L401.438 17.1219Z" fill="#F7D352"/>
<path d="M330.014 265.758C329.016 265.756 328.06 265.359 327.354 264.653C326.649 263.948 326.251 262.991 326.249 261.993V193.506L309.662 201.864C309.088 202.151 308.449 202.286 307.808 202.258C307.166 202.229 306.542 202.037 305.996 201.7C305.449 201.363 304.998 200.892 304.684 200.332C304.37 199.771 304.205 199.14 304.203 198.498V17.1219C304.203 16.1234 304.6 15.1659 305.306 14.4598C306.012 13.7538 306.97 13.3572 307.968 13.3572H401.438C402.437 13.3572 403.394 13.7538 404.1 14.4598C404.806 15.1659 405.203 16.1234 405.203 17.1219V226.01C405.204 226.708 405.01 227.392 404.645 227.987C404.279 228.581 403.755 229.062 403.132 229.376L331.701 265.352C331.178 265.617 330.6 265.757 330.014 265.758ZM330.014 183.642C331.012 183.644 331.968 184.042 332.674 184.747C333.38 185.453 333.777 186.409 333.779 187.407V255.88L397.673 223.691V20.8866H311.74V192.392L328.32 184.041C328.846 183.777 329.426 183.64 330.014 183.642Z" fill="black"/>
<path d="M33.9953 333.975V267.475C33.9953 264.109 35.8927 261.03 38.8969 259.516L182.001 187.384V494.886H33.9953V366.088" fill="#53ABDF"/>
<path d="M181.993 498.643H33.9953C32.9968 498.643 32.0393 498.246 31.3332 497.54C30.6272 496.834 30.2306 495.877 30.2306 494.878V366.095C30.2306 365.097 30.6272 364.139 31.3332 363.433C32.0393 362.727 32.9968 362.33 33.9953 362.33C34.9938 362.33 35.9513 362.727 36.6573 363.433C37.3634 364.139 37.76 365.097 37.76 366.095V491.113H178.229V193.506L40.5911 262.882C39.7384 263.31 39.0218 263.967 38.5217 264.78C38.0217 265.592 37.7579 266.528 37.76 267.482V333.982C37.76 334.981 37.3634 335.938 36.6573 336.644C35.9513 337.35 34.9938 337.747 33.9953 337.747C32.9968 337.747 32.0393 337.35 31.3332 336.644C30.6272 335.938 30.2306 334.981 30.2306 333.982V267.482C30.2306 262.664 32.9111 258.327 37.2104 256.158L180.307 184.034C180.88 183.745 181.519 183.607 182.16 183.635C182.802 183.662 183.426 183.853 183.974 184.189C184.521 184.526 184.973 184.997 185.286 185.557C185.6 186.118 185.765 186.75 185.766 187.392V494.893C185.766 495.892 185.369 496.849 184.663 497.555C183.957 498.261 182.999 498.658 182.001 498.658L181.993 498.643Z" fill="black"/>
<path d="M329.999 187.384V494.886H182.001V261.978L329.999 187.384Z" fill="#53ABDF"/>
<path d="M329.999 498.643H181.986C180.987 498.643 180.03 498.246 179.324 497.54C178.618 496.834 178.221 495.877 178.221 494.878V261.993C178.221 261.295 178.416 260.61 178.783 260.016C179.15 259.421 179.675 258.941 180.299 258.628L328.297 184.026C328.871 183.737 329.509 183.6 330.151 183.627C330.793 183.654 331.417 183.845 331.964 184.182C332.511 184.518 332.963 184.989 333.277 185.55C333.591 186.111 333.756 186.742 333.756 187.384V494.886C333.756 495.884 333.36 496.842 332.654 497.548C331.948 498.254 330.99 498.65 329.992 498.65L329.999 498.643ZM185.758 491.113H326.234V193.506L185.751 264.305L185.758 491.113Z" fill="black"/>
<path d="M451.689 200.651L465.077 193.905C466.435 193.222 467.946 192.897 469.466 192.963C470.985 193.028 472.463 193.481 473.758 194.279C475.053 195.076 476.122 196.192 476.864 197.52C477.606 198.847 477.996 200.343 477.997 201.864V494.878H329.999V261.986L425.577 213.813" fill="#53ABDF"/>
<path d="M478.005 498.643H329.999C329.001 498.643 328.043 498.246 327.337 497.54C326.631 496.834 326.234 495.877 326.234 494.878V261.993C326.234 261.296 326.427 260.611 326.793 260.017C327.158 259.423 327.682 258.942 328.305 258.628L423.883 210.447C424.774 210.006 425.803 209.935 426.745 210.25C427.688 210.565 428.468 211.239 428.915 212.127C429.363 213.014 429.441 214.043 429.133 214.988C428.825 215.932 428.156 216.717 427.272 217.171L333.756 264.305V491.113H474.24V201.864C474.25 200.983 474.029 200.115 473.6 199.347C473.171 198.578 472.548 197.935 471.793 197.481C471.048 197.012 470.194 196.745 469.315 196.707C468.435 196.668 467.561 196.86 466.778 197.263L453.384 204.009C452.496 204.422 451.483 204.473 450.559 204.151C449.635 203.829 448.873 203.161 448.433 202.287C447.994 201.412 447.912 200.402 448.205 199.468C448.498 198.535 449.143 197.752 450.003 197.286L463.383 190.539C465.311 189.554 467.462 189.085 469.626 189.178C471.79 189.27 473.893 189.921 475.731 191.066C479.511 193.393 481.769 197.429 481.769 201.864V494.878C481.769 495.877 481.373 496.834 480.667 497.54C479.961 498.246 479.003 498.643 478.005 498.643Z" fill="black"/>
<path d="M110.539 17.152H204.017V65.7619H110.539V17.152Z" fill="#EF586C"/>
<path d="M204.017 69.5266H110.539C109.541 69.5266 108.583 69.1299 107.877 68.4239C107.171 67.7179 106.775 66.7603 106.775 65.7619V17.167C106.775 16.1686 107.171 15.211 107.877 14.505C108.583 13.799 109.541 13.4023 110.539 13.4023H204.017C205.015 13.4023 205.973 13.799 206.679 14.505C207.385 15.211 207.782 16.1686 207.782 17.167V65.7694C207.782 66.7679 207.385 67.7254 206.679 68.4315C205.973 69.1375 205.015 69.5266 204.017 69.5266ZM114.304 61.9972H200.252V20.9318H114.304V61.9972Z" fill="black"/>
<path d="M226.861 20.9242H87.695C86.6966 20.9242 85.739 20.5276 85.033 19.8216C84.327 19.1156 83.9303 18.158 83.9303 17.1595C83.9303 16.1611 84.327 15.2035 85.033 14.4975C85.739 13.7915 86.6966 13.3948 87.695 13.3948H226.861C227.86 13.3948 228.817 13.7915 229.523 14.4975C230.229 15.2035 230.626 16.1611 230.626 17.1595C230.626 18.158 230.229 19.1156 229.523 19.8216C228.817 20.5276 227.86 20.9242 226.861 20.9242Z" fill="black"/>
<path d="M307.976 17.152H401.453V65.7619H307.976V17.152Z" fill="#EF586C"/>
<path d="M401.461 69.5266H307.976C306.977 69.5266 306.019 69.1299 305.313 68.4239C304.607 67.7179 304.211 66.7603 304.211 65.7619V17.167C304.211 16.1686 304.607 15.211 305.313 14.505C306.019 13.799 306.977 13.4023 307.976 13.4023H401.461C402.459 13.4023 403.417 13.799 404.123 14.505C404.829 15.211 405.225 16.1686 405.225 17.167V65.7694C405.225 66.7679 404.829 67.7254 404.123 68.4315C403.417 69.1375 402.459 69.5266 401.461 69.5266ZM311.74 61.9972H397.696V20.9318H311.74V61.9972Z" fill="black"/>
<path d="M424.305 20.9242H285.131C284.133 20.9242 283.175 20.5276 282.469 19.8216C281.763 19.1156 281.367 18.158 281.367 17.1595C281.367 16.1611 281.763 15.2035 282.469 14.4975C283.175 13.7915 284.133 13.3948 285.131 13.3948H424.305C425.303 13.3948 426.261 13.7915 426.967 14.4975C427.673 15.2035 428.07 16.1611 428.07 17.1595C428.07 18.158 427.673 19.1156 426.967 19.8216C426.261 20.5276 425.303 20.9242 424.305 20.9242Z" fill="black"/>
<path d="M136.621 434.357V494.878H79.375V434.357C79.3134 430.559 80.0083 426.787 81.4191 423.26C82.8299 419.733 84.9284 416.523 87.5924 413.815C90.2564 411.107 93.4326 408.957 96.9359 407.489C100.439 406.022 104.2 405.266 107.998 405.266C111.796 405.266 115.557 406.022 119.06 407.489C122.564 408.957 125.74 411.107 128.404 413.815C131.068 416.523 133.166 419.733 134.577 423.26C135.988 426.787 136.683 430.559 136.621 434.357Z" fill="white"/>
<path d="M136.621 498.643H79.3751C78.3766 498.643 77.419 498.246 76.713 497.54C76.007 496.834 75.6104 495.877 75.6104 494.878V434.357C75.6104 416.497 90.1421 401.965 107.994 401.965C125.847 401.965 140.386 416.497 140.386 434.357V494.878C140.386 495.877 139.989 496.834 139.283 497.54C138.577 498.246 137.62 498.643 136.621 498.643ZM83.1398 491.113H132.856V434.357C132.856 420.653 121.705 409.495 107.994 409.495C94.2833 409.495 83.1398 420.653 83.1398 434.357V491.113Z" fill="black"/>
<path d="M284.619 434.357V494.878H227.373V434.357C227.312 430.559 228.006 426.787 229.417 423.26C230.828 419.733 232.927 416.523 235.591 413.815C238.255 411.107 241.431 408.957 244.934 407.489C248.437 406.022 252.198 405.266 255.996 405.266C259.795 405.266 263.555 406.022 267.058 407.489C270.562 408.957 273.738 411.107 276.402 413.815C279.066 416.523 281.164 419.733 282.575 423.26C283.986 426.787 284.681 430.559 284.619 434.357Z" fill="white"/>
<path d="M284.619 498.643H227.373C226.375 498.643 225.417 498.246 224.711 497.54C224.005 496.834 223.608 495.877 223.608 494.878V434.357C223.608 416.497 238.14 401.965 256 401.965C273.86 401.965 288.384 416.497 288.384 434.357V494.878C288.384 495.877 287.987 496.834 287.281 497.54C286.575 498.246 285.618 498.643 284.619 498.643ZM231.138 491.113H280.847V434.357C280.847 420.653 269.696 409.495 255.992 409.495C242.289 409.495 231.13 420.653 231.13 434.357L231.138 491.113Z" fill="black"/>
<path d="M432.625 434.357V494.878H375.379V434.357C375.317 430.559 376.012 426.787 377.423 423.26C378.834 419.733 380.932 416.523 383.596 413.815C386.26 411.107 389.436 408.957 392.94 407.489C396.443 406.022 400.204 405.266 404.002 405.266C407.8 405.266 411.561 406.022 415.064 407.489C418.567 408.957 421.744 411.107 424.408 413.815C427.072 416.523 429.17 419.733 430.581 423.26C431.992 426.787 432.687 430.559 432.625 434.357Z" fill="white"/>
<path d="M432.625 498.643H375.379C374.38 498.643 373.423 498.246 372.717 497.54C372.011 496.834 371.614 495.877 371.614 494.878V434.357C371.622 425.771 375.035 417.539 381.105 411.467C387.174 405.394 395.405 401.977 403.991 401.965C412.58 401.973 420.815 405.388 426.889 411.461C432.963 417.533 436.38 425.768 436.39 434.357V494.878C436.39 495.877 435.993 496.834 435.287 497.54C434.581 498.246 433.623 498.643 432.625 498.643ZM379.144 491.113H428.86V434.357C428.86 420.653 417.702 409.495 403.998 409.495C390.295 409.495 379.144 420.653 379.144 434.357V491.113Z" fill="black"/>
<path d="M502.844 498.643H9.15576C8.1573 498.643 7.19973 498.246 6.49371 497.54C5.78769 496.834 5.39105 495.877 5.39105 494.878C5.39105 493.88 5.78769 492.922 6.49371 492.216C7.19973 491.51 8.1573 491.113 9.15576 491.113H502.844C503.843 491.113 504.8 491.51 505.506 492.216C506.212 492.922 506.609 493.88 506.609 494.878C506.609 495.877 506.212 496.834 505.506 497.54C504.8 498.246 503.843 498.643 502.844 498.643Z" fill="black"/>
<path d="M455.846 309.76V343.416C455.846 347.512 452.533 350.833 448.437 350.833H367.473C366.5 350.833 365.537 350.641 364.638 350.269C363.739 349.897 362.922 349.351 362.234 348.663C361.546 347.975 361 347.158 360.628 346.259C360.256 345.36 360.064 344.397 360.064 343.424V309.76C360.064 305.664 363.377 302.344 367.473 302.344H448.437C452.533 302.344 455.846 305.664 455.846 309.76Z" fill="white"/>
<path d="M448.437 354.598H367.473C364.511 354.594 361.671 353.415 359.576 351.321C357.482 349.226 356.303 346.386 356.299 343.424V309.76C356.299 303.601 361.314 298.586 367.473 298.586H448.437C454.596 298.586 459.61 303.601 459.61 309.76V343.416C459.61 349.583 454.596 354.598 448.437 354.598ZM367.473 306.108C366.506 306.11 365.579 306.496 364.896 307.18C364.212 307.865 363.829 308.793 363.829 309.76V343.416C363.829 345.434 365.47 347.068 367.473 347.068H448.437C449.403 347.066 450.328 346.682 451.011 345.999C451.694 345.316 452.079 344.39 452.081 343.424V309.76C452.079 308.794 451.694 307.868 451.011 307.185C450.328 306.502 449.403 306.118 448.437 306.116L367.473 306.108Z" fill="black"/>
<path d="M303.887 309.76V343.416C303.887 347.512 300.574 350.833 296.478 350.833H215.522C214.548 350.834 213.584 350.643 212.684 350.271C211.785 349.899 210.967 349.354 210.278 348.666C209.589 347.977 209.043 347.16 208.67 346.261C208.297 345.362 208.105 344.398 208.105 343.424V309.76C208.105 305.664 211.418 302.344 215.522 302.344H296.478C300.574 302.344 303.887 305.664 303.887 309.76Z" fill="white"/>
<path d="M296.478 354.598H215.522C212.558 354.596 209.717 353.418 207.62 351.323C205.524 349.228 204.345 346.388 204.341 343.424V309.76C204.341 303.601 209.355 298.586 215.522 298.586H296.478C302.645 298.586 307.659 303.601 307.659 309.76V343.416C307.659 349.583 302.645 354.598 296.478 354.598ZM215.522 306.108C214.553 306.108 213.625 306.493 212.94 307.178C212.255 307.863 211.87 308.791 211.87 309.76V343.416C211.87 345.434 213.512 347.068 215.522 347.068H296.478C297.445 347.068 298.373 346.685 299.058 346.001C299.742 345.318 300.128 344.391 300.13 343.424V309.76C300.128 308.793 299.742 307.866 299.058 307.183C298.373 306.499 297.445 306.116 296.478 306.116L215.522 306.108Z" fill="black"/>
<path d="M158.456 309.76V343.416C158.456 347.512 155.144 350.833 151.048 350.833H70.0913C69.1177 350.834 68.1534 350.643 67.2537 350.271C66.3539 349.899 65.5363 349.354 64.8475 348.666C64.1587 347.977 63.6123 347.16 63.2395 346.261C62.8667 345.362 62.6748 344.398 62.6748 343.424V309.76C62.6748 305.664 65.9877 302.344 70.0913 302.344H151.04C155.136 302.344 158.456 305.664 158.456 309.76Z" fill="white"/>
<path d="M151.048 354.598H70.0837C67.1215 354.594 64.2818 353.415 62.1872 351.321C60.0926 349.226 58.9141 346.386 58.9101 343.424V309.76C58.9101 303.601 63.9247 298.586 70.0837 298.586H151.048C157.207 298.586 162.221 303.601 162.221 309.76V343.416C162.221 349.583 157.207 354.598 151.048 354.598ZM70.0837 306.108C69.1165 306.11 68.1896 306.496 67.5064 307.18C66.8232 307.865 66.4395 308.793 66.4395 309.76V343.416C66.4395 345.434 68.0809 347.068 70.0837 347.068H151.048C152.013 347.066 152.939 346.682 153.622 345.999C154.305 345.316 154.69 344.39 154.692 343.424V309.76C154.69 308.794 154.305 307.868 153.622 307.185C152.939 306.502 152.013 306.118 151.048 306.116L70.0837 306.108Z" fill="black"/>
</svg>
