<svg width="223" height="68" viewBox="0 0 223 68" fill="none" xmlns="http://www.w3.org/2000/svg">
<path d="M208.147 7.8167C208.147 4.20962 211.071 1.28551 214.678 1.2855C218.285 1.2855 221.209 4.20962 221.209 7.81669C221.209 11.4238 218.285 14.3479 214.678 14.3479C211.071 14.3479 208.147 11.4238 208.147 7.8167Z" stroke="#D4B76E" stroke-width="1.98783"/>
<path d="M156.362 7.8167C156.362 4.20962 159.286 1.28551 162.893 1.2855C166.5 1.2855 169.424 4.20962 169.424 7.81669C169.424 11.4238 166.5 14.3479 162.893 14.3479C159.286 14.3479 156.362 11.4238 156.362 7.8167Z" stroke="#D4B76E" stroke-width="1.98783"/>
<path d="M104.575 7.8167C104.575 4.20962 107.499 1.28551 111.106 1.2855C114.713 1.2855 117.637 4.20962 117.637 7.81669C117.637 11.4238 114.713 14.3479 111.106 14.3479C107.499 14.3479 104.575 11.4238 104.575 7.8167Z" stroke="#D4B76E" stroke-width="1.98783"/>
<path d="M52.7894 7.8167C52.7894 4.20962 55.7135 1.28551 59.3206 1.2855C62.9277 1.2855 65.8518 4.20962 65.8518 7.81669C65.8518 11.4238 62.9277 14.3479 59.3206 14.3479C55.7135 14.3479 52.7894 11.4238 52.7894 7.8167Z" stroke="#D4B76E" stroke-width="1.98783"/>
<path d="M1.0023 7.8167C1.0023 4.20962 3.92641 1.28551 7.53349 1.2855C11.1406 1.2855 14.0647 4.20962 14.0647 7.81669C14.0647 11.4238 11.1406 14.3479 7.53349 14.3479C3.92641 14.3479 1.0023 11.4238 1.0023 7.8167Z" stroke="#D4B76E" stroke-width="1.98783"/>
<path d="M208.147 60.2972C208.147 56.6901 211.071 53.766 214.678 53.766C218.285 53.766 221.209 56.6901 221.209 60.2972C221.209 63.9042 218.285 66.8284 214.678 66.8284C211.071 66.8284 208.147 63.9042 208.147 60.2972Z" stroke="#D4B76E" stroke-width="1.98783"/>
<path d="M156.362 60.2972C156.362 56.6901 159.286 53.766 162.893 53.766C166.5 53.766 169.424 56.6901 169.424 60.2972C169.424 63.9042 166.5 66.8284 162.893 66.8284C159.286 66.8284 156.362 63.9042 156.362 60.2972Z" stroke="#D4B76E" stroke-width="1.98783"/>
<path d="M104.575 60.2972C104.575 56.6901 107.499 53.766 111.106 53.766C114.713 53.766 117.637 56.6901 117.637 60.2972C117.637 63.9042 114.713 66.8284 111.106 66.8284C107.499 66.8284 104.575 63.9042 104.575 60.2972Z" stroke="#D4B76E" stroke-width="1.98783"/>
<path d="M52.7894 60.2972C52.7894 56.6901 55.7135 53.766 59.3206 53.766C62.9277 53.766 65.8518 56.6901 65.8518 60.2972C65.8518 63.9042 62.9277 66.8284 59.3206 66.8284C55.7135 66.8284 52.7894 63.9042 52.7894 60.2972Z" stroke="#D4B76E" stroke-width="1.98783"/>
<path d="M1.0023 60.2972C1.0023 56.6901 3.92641 53.766 7.53349 53.766C11.1406 53.766 14.0647 56.6901 14.0647 60.2972C14.0647 63.9042 11.1406 66.8284 7.53349 66.8284C3.92641 66.8284 1.0023 63.9042 1.0023 60.2972Z" stroke="#D4B76E" stroke-width="1.98783"/>
</svg>
