<svg width="16" height="223" viewBox="0 0 16 223" fill="none" xmlns="http://www.w3.org/2000/svg">
<path d="M8.38057 208.378C11.9877 208.378 14.9118 211.302 14.9118 214.909C14.9118 218.517 11.9876 221.441 8.38057 221.441C4.77349 221.441 1.84938 218.517 1.84938 214.909C1.84938 211.302 4.77349 208.378 8.38057 208.378Z" stroke="black" stroke-width="1.98783"/>
<path d="M8.38057 156.592C11.9877 156.592 14.9118 159.516 14.9118 163.123C14.9118 166.73 11.9876 169.655 8.38057 169.655C4.77349 169.655 1.84938 166.73 1.84938 163.123C1.84938 159.516 4.77349 156.592 8.38057 156.592Z" stroke="black" stroke-width="1.98783"/>
<path d="M8.38057 104.807C11.9877 104.807 14.9118 107.731 14.9118 111.338C14.9118 114.945 11.9876 117.869 8.38057 117.869C4.77349 117.869 1.84938 114.945 1.84938 111.338C1.84938 107.731 4.77349 104.807 8.38057 104.807Z" stroke="black" stroke-width="1.98783"/>
<path d="M8.38057 53.0209C11.9877 53.0209 14.9118 55.945 14.9118 59.552C14.9118 63.1591 11.9876 66.0832 8.38057 66.0832C4.77349 66.0832 1.84938 63.1591 1.84938 59.552C1.84938 55.945 4.77349 53.0209 8.38057 53.0209Z" stroke="black" stroke-width="1.98783"/>
<path d="M8.38057 1.23472C11.9877 1.23472 14.9118 4.15883 14.9118 7.76591C14.9118 11.373 11.9876 14.2971 8.38057 14.2971C4.77349 14.2971 1.84938 11.373 1.84938 7.76591C1.84938 4.15883 4.77349 1.23472 8.38057 1.23472Z" stroke="black" stroke-width="1.98783"/>
</svg>
