<svg width="139" height="158" viewBox="0 0 139 158" fill="none" xmlns="http://www.w3.org/2000/svg">
<circle cx="69.5" cy="88.3242" r="69.5" fill="#D4B76E"/>
<path d="M61 67.5117H85.375C85.5905 67.5117 85.7972 67.4261 85.9496 67.2737C86.1019 67.1214 86.1875 66.9147 86.1875 66.6992C86.1875 66.4837 86.1019 66.2771 85.9496 66.1247C85.7972 65.9723 85.5905 65.8867 85.375 65.8867H61C60.7845 65.8867 60.5778 65.9723 60.4255 66.1247C60.2731 66.2771 60.1875 66.4837 60.1875 66.6992C60.1875 66.9147 60.2731 67.1214 60.4255 67.2737C60.5778 67.4261 60.7845 67.5117 61 67.5117ZM61 70.7617H85.375C85.5905 70.7617 85.7972 70.6761 85.9496 70.5238C86.1019 70.3714 86.1875 70.1647 86.1875 69.9492C86.1875 69.7337 86.1019 69.5271 85.9496 69.3747C85.7972 69.2223 85.5905 69.1367 85.375 69.1367H61C60.7845 69.1367 60.5778 69.2223 60.4255 69.3747C60.2731 69.5271 60.1875 69.7337 60.1875 69.9492C60.1875 70.1647 60.2731 70.3714 60.4255 70.5238C60.5778 70.6761 60.7845 70.7617 61 70.7617ZM61 74.0117H85.375C85.5905 74.0117 85.7972 73.9261 85.9496 73.7738C86.1019 73.6214 86.1875 73.4147 86.1875 73.1992C86.1875 72.9837 86.1019 72.7771 85.9496 72.6247C85.7972 72.4723 85.5905 72.3867 85.375 72.3867H61C60.7845 72.3867 60.5778 72.4723 60.4255 72.6247C60.2731 72.7771 60.1875 72.9837 60.1875 73.1992C60.1875 73.4147 60.2731 73.6214 60.4255 73.7738C60.5778 73.9261 60.7845 74.0117 61 74.0117ZM61 77.2617H85.375C85.5905 77.2617 85.7972 77.1761 85.9496 77.0238C86.1019 76.8714 86.1875 76.6647 86.1875 76.4492C86.1875 76.2337 86.1019 76.0271 85.9496 75.8747C85.7972 75.7223 85.5905 75.6367 85.375 75.6367H61C60.7845 75.6367 60.5778 75.7223 60.4255 75.8747C60.2731 76.0271 60.1875 76.2337 60.1875 76.4492C60.1875 76.6647 60.2731 76.8714 60.4255 77.0238C60.5778 77.1761 60.7845 77.2617 61 77.2617ZM61 80.5117H85.375C85.5905 80.5117 85.7972 80.4261 85.9496 80.2738C86.1019 80.1214 86.1875 79.9147 86.1875 79.6992C86.1875 79.4838 86.1019 79.2771 85.9496 79.1247C85.7972 78.9723 85.5905 78.8867 85.375 78.8867H61C60.7845 78.8867 60.5778 78.9723 60.4255 79.1247C60.2731 79.2771 60.1875 79.4838 60.1875 79.6992C60.1875 79.9147 60.2731 80.1214 60.4255 80.2738C60.5778 80.4261 60.7845 80.5117 61 80.5117ZM61 83.7617H74.8125C75.028 83.7617 75.2347 83.6761 75.387 83.5238C75.5394 83.3714 75.625 83.1647 75.625 82.9492C75.625 82.7338 75.5394 82.5271 75.387 82.3747C75.2347 82.2223 75.028 82.1367 74.8125 82.1367H61C60.7845 82.1367 60.5778 82.2223 60.4255 82.3747C60.2731 82.5271 60.1875 82.7338 60.1875 82.9492C60.1875 83.1647 60.2731 83.3714 60.4255 83.5238C60.5778 83.6761 60.7845 83.7617 61 83.7617ZM79.6875 90.2618C78.7233 90.2618 77.7808 90.5477 76.9791 91.0833C76.1774 91.619 75.5526 92.3804 75.1836 93.2712C74.8146 94.162 74.7181 95.1422 74.9062 96.0878C75.0943 97.0335 75.5586 97.9021 76.2404 98.5839C76.9222 99.2657 77.7908 99.73 78.7365 99.9181C79.6821 100.106 80.6623 100.01 81.5531 99.6407C82.4439 99.2717 83.2053 98.6469 83.741 97.8452C84.2766 97.0435 84.5625 96.101 84.5625 95.1368C84.5612 93.8442 84.0472 92.605 83.1333 91.691C82.2193 90.7771 80.9801 90.2631 79.6875 90.2618ZM79.6875 98.3868C79.0447 98.3868 78.4164 98.1962 77.8819 97.839C77.3475 97.4819 76.9309 96.9744 76.6849 96.3805C76.4389 95.7866 76.3746 95.1332 76.5 94.5027C76.6254 93.8723 76.9349 93.2932 77.3894 92.8387C77.844 92.3841 78.423 92.0746 79.0535 91.9492C79.6839 91.8238 80.3374 91.8882 80.9313 92.1342C81.5251 92.3801 82.0327 92.7967 82.3898 93.3312C82.7469 93.8656 82.9375 94.494 82.9375 95.1368C82.9375 95.9987 82.5951 96.8254 81.9856 97.4349C81.3761 98.0444 80.5495 98.3868 79.6875 98.3868Z" fill="white"/>
<path d="M48.8125 74.8242H52.875C53.0905 74.8242 53.2972 74.7386 53.4495 74.5863C53.6019 74.4339 53.6875 74.2272 53.6875 74.0117C53.6875 73.7963 53.6019 73.5896 53.4495 73.4372C53.2972 73.2848 53.0905 73.1992 52.875 73.1992H49.625V66.293C49.625 65.5388 49.9246 64.8154 50.4579 64.2821C50.9912 63.7488 51.7145 63.4492 52.4688 63.4492C53.223 63.4492 53.9463 63.7488 54.4796 64.2821C55.0129 64.8154 55.3125 65.5388 55.3125 66.293V77.6501C55.2264 81.5843 54.5154 92.293 52.2933 94.568C49.1375 97.8075 48.8125 99.1075 48.8125 103.262C48.8125 103.477 48.8981 103.684 49.0505 103.836C49.2029 103.989 49.4095 104.074 49.625 104.074H52.875C53.0905 104.074 53.2972 103.989 53.4495 103.836C53.6019 103.684 53.6875 103.477 53.6875 103.262C53.6875 103.046 53.6019 102.84 53.4495 102.687C53.2972 102.535 53.0905 102.449 52.875 102.449H50.4424C50.483 99.2805 50.8486 98.373 53.4568 95.7055C54.3812 94.5302 55.0169 93.1543 55.3125 91.6885V107.324C55.3125 107.54 55.3981 107.746 55.5505 107.899C55.7029 108.051 55.9095 108.137 56.125 108.137H70.75C70.9655 108.137 71.1722 108.051 71.3246 107.899C71.4769 107.746 71.5625 107.54 71.5625 107.324C71.5625 107.109 71.4769 106.902 71.3246 106.75C71.1722 106.597 70.9655 106.512 70.75 106.512H56.9375V66.293C56.9382 65.2546 56.5758 64.2486 55.913 63.4492H86.5938C87.348 63.4492 88.0713 63.7488 88.6047 64.2821C89.138 64.8154 89.4376 65.5388 89.4376 66.293V93.9879L87.3941 91.9445V89.0552C87.3941 88.6242 87.2229 88.2109 86.9182 87.9062C86.6134 87.6014 86.2001 87.4302 85.7691 87.4302H82.8799L80.8364 85.3868C80.5317 85.0821 80.1184 84.911 79.6876 84.911C79.2567 84.911 78.8434 85.0821 78.5387 85.3868L76.4952 87.4302H73.606C73.175 87.4302 72.7617 87.6014 72.4569 87.9062C72.1522 88.2109 71.981 88.6242 71.981 89.0552V91.9445L69.9375 93.9879C69.6329 94.2926 69.4618 94.7059 69.4618 95.1368C69.4618 95.5677 69.6329 95.9809 69.9375 96.2857L71.981 98.3291V101.218C71.981 101.649 72.1522 102.063 72.4569 102.367C72.7617 102.672 73.175 102.843 73.606 102.843H75.0368L70.8159 112.692C70.7454 112.856 70.7312 113.039 70.7754 113.213C70.8197 113.386 70.9199 113.54 71.0606 113.65C71.2012 113.761 71.3745 113.822 71.5534 113.824C71.7323 113.826 71.9069 113.769 72.05 113.662L74.6127 111.739L75.7615 113.463C75.8358 113.574 75.9363 113.665 76.0542 113.728C76.1721 113.791 76.3038 113.824 76.4375 113.824C76.477 113.824 76.5163 113.822 76.5554 113.816C76.7078 113.794 76.8507 113.728 76.9674 113.627C77.0841 113.527 77.1697 113.395 77.2143 113.247L78.7881 108.137H80.587L82.1608 113.251C82.2054 113.398 82.291 113.53 82.4077 113.631C82.5244 113.731 82.6673 113.797 82.8197 113.819C82.8589 113.824 82.8982 113.825 82.9376 113.824C83.0713 113.824 83.203 113.791 83.3209 113.728C83.4388 113.665 83.5393 113.574 83.6136 113.463L84.7624 111.739L87.3251 113.662C87.4682 113.769 87.6428 113.826 87.8217 113.824C88.0006 113.822 88.1739 113.761 88.3145 113.65C88.4552 113.54 88.5555 113.386 88.5997 113.213C88.6439 113.039 88.6297 112.856 88.5593 112.692L84.3383 102.843H85.7691C86.2001 102.843 86.6134 102.672 86.9182 102.367C87.2229 102.063 87.3941 101.649 87.3941 101.218V98.3291L89.4376 96.2857V106.512H88.6251C88.4096 106.512 88.2029 106.597 88.0505 106.75C87.8982 106.902 87.8126 107.109 87.8126 107.324C87.8126 107.54 87.8982 107.746 88.0505 107.899C88.2029 108.051 88.4096 108.137 88.6251 108.137H90.2501C90.4656 108.137 90.6722 108.051 90.8246 107.899C90.977 107.746 91.0626 107.54 91.0626 107.324V66.293C91.0613 65.1082 90.5901 63.9723 89.7523 63.1345C88.9145 62.2967 87.7786 61.8255 86.5938 61.8242H52.0625C51.9539 61.824 51.8464 61.8458 51.7464 61.8884C50.7013 62.0596 49.751 62.5964 49.0648 63.4031C48.3786 64.2098 48.0013 65.2339 48 66.293V74.0117C48 74.2272 48.0856 74.4339 48.238 74.5863C48.3903 74.7386 48.597 74.8242 48.8125 74.8242ZM76.1645 111.137L75.4885 110.123C75.4272 110.031 75.3478 109.953 75.2552 109.893C75.1625 109.833 75.0585 109.792 74.9496 109.773C74.8407 109.755 74.7292 109.759 74.6218 109.784C74.5144 109.81 74.4134 109.858 74.325 109.924L73.5069 110.539L76.7114 103.059L78.1934 104.541L76.1645 111.137ZM79.2878 106.512L79.6429 105.358C79.6575 105.358 79.6729 105.362 79.6876 105.362C79.7022 105.362 79.7176 105.358 79.7322 105.358L80.0873 106.512H79.2878ZM85.0501 109.924C84.9617 109.858 84.8607 109.81 84.7533 109.784C84.6459 109.759 84.5344 109.755 84.4255 109.773C84.3166 109.792 84.2126 109.833 84.1199 109.893C84.0273 109.953 83.9479 110.031 83.8866 110.123L83.2106 111.137L81.1793 104.541L82.6613 103.059L85.8658 110.539L85.0501 109.924ZM86.2453 97.1802C86.0938 97.3307 85.9738 97.5097 85.8921 97.7069C85.8103 97.9042 85.7685 98.1156 85.7691 98.3291V101.218H82.8799C82.4492 101.22 82.0363 101.391 81.731 101.694L79.6876 103.738L77.4061 101.456C77.2537 101.304 77.0471 101.218 76.8316 101.218H73.606V98.3291C73.6066 98.1156 73.5648 97.9042 73.483 97.7069C73.4013 97.5097 73.2813 97.3307 73.1299 97.1802L71.0864 95.1368L73.1299 93.0933C73.2813 92.9429 73.4013 92.7638 73.483 92.5666C73.5648 92.3694 73.6066 92.1579 73.606 91.9445V89.0552H76.4952C76.9259 89.054 77.3388 88.8829 77.6441 88.5791L79.6876 86.5356L81.731 88.5791C82.0363 88.8829 82.4492 89.054 82.8799 89.0552H85.7691V92.2808C85.7692 92.4963 85.8548 92.7029 86.0072 92.8553L88.2887 95.1368L86.2453 97.1802Z" fill="white"/>
<circle cx="14.4583" cy="25.3665" r="6.45833" fill="#D4B76E"/>
<circle cx="35.7721" cy="4.05339" r="3.22917" fill="#D4B76E"/>
<circle cx="131.229" cy="140.053" r="3.22917" fill="#D4B76E"/>
</svg>
