<svg width="223" height="68" viewBox="0 0 223 68" fill="none" xmlns="http://www.w3.org/2000/svg">
<path d="M208.137 7.69853C208.137 4.09145 211.061 1.16734 214.668 1.16734C218.275 1.16734 221.199 4.09145 221.199 7.69853C221.199 11.3056 218.275 14.2297 214.668 14.2297C211.061 14.2297 208.137 11.3056 208.137 7.69853Z" stroke="#D4B76E" stroke-width="1.98783"/>
<path d="M156.352 7.69853C156.352 4.09145 159.276 1.16734 162.883 1.16734C166.49 1.16734 169.414 4.09145 169.414 7.69853C169.414 11.3056 166.49 14.2297 162.883 14.2297C159.276 14.2297 156.352 11.3056 156.352 7.69853Z" stroke="#D4B76E" stroke-width="1.98783"/>
<path d="M104.565 7.69853C104.565 4.09145 107.489 1.16734 111.096 1.16734C114.703 1.16734 117.627 4.09145 117.627 7.69853C117.627 11.3056 114.703 14.2297 111.096 14.2297C107.489 14.2297 104.565 11.3056 104.565 7.69853Z" stroke="#D4B76E" stroke-width="1.98783"/>
<path d="M52.7796 7.69853C52.7796 4.09145 55.7038 1.16734 59.3108 1.16734C62.9179 1.16734 65.842 4.09145 65.842 7.69853C65.842 11.3056 62.9179 14.2297 59.3108 14.2297C55.7038 14.2297 52.7796 11.3056 52.7796 7.69853Z" stroke="#D4B76E" stroke-width="1.98783"/>
<path d="M0.992535 7.69853C0.992535 4.09145 3.91665 1.16734 7.52372 1.16734C11.1308 1.16734 14.0549 4.09145 14.0549 7.69853C14.0549 11.3056 11.1308 14.2297 7.52372 14.2297C3.91665 14.2297 0.992535 11.3056 0.992535 7.69853Z" stroke="#D4B76E" stroke-width="1.98783"/>
<path d="M208.137 60.179C208.137 56.5719 211.061 53.6478 214.668 53.6478C218.275 53.6478 221.199 56.5719 221.199 60.179C221.199 63.7861 218.275 66.7102 214.668 66.7102C211.061 66.7102 208.137 63.7861 208.137 60.179Z" stroke="#D4B76E" stroke-width="1.98783"/>
<path d="M156.352 60.179C156.352 56.5719 159.276 53.6478 162.883 53.6478C166.49 53.6478 169.414 56.5719 169.414 60.179C169.414 63.7861 166.49 66.7102 162.883 66.7102C159.276 66.7102 156.352 63.7861 156.352 60.179Z" stroke="#D4B76E" stroke-width="1.98783"/>
<path d="M104.565 60.179C104.565 56.5719 107.489 53.6478 111.096 53.6478C114.703 53.6478 117.627 56.5719 117.627 60.179C117.627 63.7861 114.703 66.7102 111.096 66.7102C107.489 66.7102 104.565 63.7861 104.565 60.179Z" stroke="#D4B76E" stroke-width="1.98783"/>
<path d="M52.7796 60.179C52.7796 56.5719 55.7038 53.6478 59.3108 53.6478C62.9179 53.6478 65.842 56.5719 65.842 60.179C65.842 63.7861 62.9179 66.7102 59.3108 66.7102C55.7038 66.7102 52.7796 63.7861 52.7796 60.179Z" stroke="#D4B76E" stroke-width="1.98783"/>
<path d="M0.992535 60.179C0.992535 56.5719 3.91665 53.6478 7.52372 53.6478C11.1308 53.6478 14.0549 56.5719 14.0549 60.179C14.0549 63.7861 11.1308 66.7102 7.52372 66.7102C3.91665 66.7102 0.992535 63.7861 0.992535 60.179Z" stroke="#D4B76E" stroke-width="1.98783"/>
</svg>
