<svg width="22" height="13" viewBox="0 0 22 13" fill="none" xmlns="http://www.w3.org/2000/svg">
<path d="M21.4844 6.09379C21.4844 6.32115 21.3941 6.53919 21.2333 6.69995C21.0725 6.86072 20.8545 6.95103 20.6271 6.95103H3.8372L7.51648 10.6303C7.67264 10.792 7.75904 11.0085 7.75709 11.2333C7.75513 11.4581 7.66498 11.6731 7.50604 11.832C7.3471 11.991 7.13209 12.0811 6.90733 12.0831C6.68256 12.085 6.46602 11.9986 6.30434 11.8425L1.16089 6.699C1.08157 6.62014 1.01862 6.52638 0.975664 6.4231C0.932705 6.31982 0.910587 6.20907 0.91058 6.09722V6.09379C0.91058 5.98235 0.932867 5.87091 0.977444 5.76632C1.02017 5.6624 1.08311 5.56799 1.16261 5.48858L6.30606 0.34513C6.46774 0.188977 6.68428 0.102571 6.90904 0.104525C7.13381 0.106478 7.34881 0.196633 7.50775 0.355572C7.66669 0.514512 7.75685 0.729519 7.7588 0.954285C7.76076 1.17905 7.67435 1.39559 7.5182 1.55727L3.8372 5.23655H20.6271C20.8545 5.23655 21.0725 5.32687 21.2333 5.48763C21.3941 5.64839 21.4844 5.86644 21.4844 6.09379Z" fill="#D4B76E"/>
</svg>
