<svg width="223" height="16" viewBox="0 0 223 16" fill="none" xmlns="http://www.w3.org/2000/svg">
<path d="M208.137 7.82841C208.137 4.22134 211.061 1.29722 214.668 1.29722C218.275 1.29722 221.199 4.22133 221.199 7.82841C221.199 11.4355 218.275 14.3596 214.668 14.3596C211.061 14.3596 208.137 11.4355 208.137 7.82841Z" stroke="#D4B76E" stroke-width="1.98783"/>
<path d="M156.352 7.82841C156.352 4.22134 159.276 1.29722 162.883 1.29722C166.49 1.29722 169.414 4.22133 169.414 7.82841C169.414 11.4355 166.49 14.3596 162.883 14.3596C159.276 14.3596 156.352 11.4355 156.352 7.82841Z" stroke="#D4B76E" stroke-width="1.98783"/>
<path d="M104.565 7.82841C104.565 4.22134 107.489 1.29722 111.096 1.29722C114.703 1.29722 117.627 4.22133 117.627 7.82841C117.627 11.4355 114.703 14.3596 111.096 14.3596C107.489 14.3596 104.565 11.4355 104.565 7.82841Z" stroke="#D4B76E" stroke-width="1.98783"/>
<path d="M52.7796 7.82841C52.7796 4.22134 55.7038 1.29722 59.3108 1.29722C62.9179 1.29722 65.842 4.22133 65.842 7.82841C65.842 11.4355 62.9179 14.3596 59.3108 14.3596C55.7038 14.3596 52.7796 11.4355 52.7796 7.82841Z" stroke="#D4B76E" stroke-width="1.98783"/>
<path d="M0.994488 7.82841C0.994488 4.22134 3.9186 1.29722 7.52568 1.29722C11.1328 1.29722 14.0569 4.22133 14.0569 7.82841C14.0569 11.4355 11.1328 14.3596 7.52568 14.3596C3.9186 14.3596 0.994488 11.4355 0.994488 7.82841Z" stroke="#D4B76E" stroke-width="1.98783"/>
</svg>
