<svg width="22" height="13" viewBox="0 0 22 13" fill="none" xmlns="http://www.w3.org/2000/svg">
<path d="M0.972656 6.40141C0.972656 6.62876 1.06297 6.84681 1.22374 7.00757C1.3845 7.16833 1.60254 7.25865 1.8299 7.25865H18.6198L14.9405 10.9379C14.7844 11.0996 14.698 11.3161 14.6999 11.5409C14.7019 11.7657 14.7921 11.9807 14.951 12.1396C15.1099 12.2986 15.3249 12.3887 15.5497 12.3907C15.7745 12.3926 15.991 12.3062 16.1527 12.1501L21.2961 7.00662C21.3755 6.92776 21.4384 6.83399 21.4814 6.73072C21.5243 6.62744 21.5464 6.51669 21.5465 6.40484V6.40141C21.5465 6.28997 21.5242 6.17853 21.4796 6.07394C21.4369 5.97002 21.3739 5.87561 21.2944 5.7962L16.151 0.652747C15.9893 0.496594 15.7728 0.410189 15.548 0.412142C15.3232 0.414095 15.1082 0.50425 14.9493 0.663189C14.7903 0.822129 14.7002 1.03714 14.6982 1.2619C14.6963 1.48667 14.7827 1.70321 14.9388 1.86489L18.6198 5.54417H1.8299C1.60254 5.54417 1.3845 5.63448 1.22374 5.79525C1.06297 5.95601 0.972656 6.17405 0.972656 6.40141Z" fill="#D4B76E"/>
</svg>
