<svg width="223" height="16" viewBox="0 0 223 16" fill="none" xmlns="http://www.w3.org/2000/svg">
<path d="M208.944 7.87871C208.944 4.27163 211.868 1.34752 215.475 1.34752C219.082 1.34752 222.006 4.27163 222.006 7.87871C222.006 11.4858 219.082 14.4099 215.475 14.4099C211.868 14.4099 208.944 11.4858 208.944 7.87871Z" stroke="black" stroke-width="1.98783"/>
<path d="M157.159 7.87871C157.159 4.27163 160.083 1.34752 163.69 1.34752C167.297 1.34752 170.221 4.27163 170.221 7.87871C170.221 11.4858 167.297 14.4099 163.69 14.4099C160.083 14.4099 157.159 11.4858 157.159 7.87871Z" stroke="black" stroke-width="1.98783"/>
<path d="M105.373 7.87871C105.373 4.27163 108.298 1.34752 111.905 1.34752C115.512 1.34752 118.436 4.27163 118.436 7.87871C118.436 11.4858 115.512 14.4099 111.905 14.4099C108.298 14.4099 105.373 11.4858 105.373 7.87871Z" stroke="black" stroke-width="1.98783"/>
<path d="M53.5863 7.87871C53.5863 4.27163 56.5104 1.34752 60.1175 1.34752C63.7246 1.34752 66.6487 4.27163 66.6487 7.87871C66.6487 11.4858 63.7246 14.4099 60.1175 14.4099C56.5104 14.4099 53.5863 11.4858 53.5863 7.87871Z" stroke="black" stroke-width="1.98783"/>
<path d="M1.79918 7.87871C1.79918 4.27163 4.72329 1.34752 8.33036 1.34752C11.9374 1.34752 14.8616 4.27163 14.8616 7.87871C14.8616 11.4858 11.9374 14.4099 8.33037 14.4099C4.72329 14.4099 1.79918 11.4858 1.79918 7.87871Z" stroke="black" stroke-width="1.98783"/>
</svg>
