<svg width="72" height="71" viewBox="0 0 72 71" fill="none" xmlns="http://www.w3.org/2000/svg">
<path d="M35.9547 0.327637C26.6376 0.338054 17.7051 4.04387 11.1169 10.632C4.52873 17.2202 0.822918 26.1527 0.8125 35.4698C0.828111 44.7853 4.53559 53.7148 11.1226 60.3018C17.7097 66.8889 26.6392 70.5963 35.9547 70.612C45.2749 70.612 54.2135 66.9095 60.8039 60.3191C67.3943 53.7286 71.0968 44.7901 71.0968 35.4698C71.0968 26.1495 67.3943 17.211 60.8039 10.6205C54.2135 4.0301 45.2749 0.327637 35.9547 0.327637ZM57.3295 55.7482C55.3559 51.7673 52.309 48.4172 48.5327 46.0759C44.7563 43.7345 40.4008 42.4951 35.9575 42.4974C31.5142 42.4998 27.16 43.7438 23.3862 46.0891C19.6123 48.4344 16.5689 51.7878 14.5995 55.7707C9.34478 50.3209 6.4168 43.0403 6.43525 35.4698C6.43525 27.6408 9.54532 20.1324 15.0813 14.5964C20.6172 9.06045 28.1256 5.95038 35.9547 5.95038C43.7837 5.95038 51.2921 9.06045 56.828 14.5964C62.364 20.1324 65.4741 27.6408 65.4741 35.4698C65.4917 43.0297 62.5714 50.3007 57.3295 55.7482ZM35.9547 14.3845C33.4525 14.3845 31.0065 15.1265 28.926 16.5166C26.8456 17.9067 25.224 19.8826 24.2665 22.1943C23.309 24.506 23.0584 27.0497 23.5466 29.5038C24.0347 31.9579 25.2396 34.2121 27.0089 35.9814C28.7782 37.7507 31.0324 38.9556 33.4865 39.4438C35.9406 39.9319 38.4844 39.6814 40.7961 38.7238C43.1078 37.7663 45.0836 36.1448 46.4737 34.0643C47.8639 31.9838 48.6058 29.5378 48.6058 27.0357C48.6058 25.3743 48.2786 23.7292 47.6428 22.1943C47.007 20.6594 46.0752 19.2647 44.9004 18.0899C43.7256 16.9152 42.331 15.9833 40.7961 15.3475C39.2611 14.7117 37.616 14.3845 35.9547 14.3845Z" fill="#C2C2C2"/>
</svg>
