<svg width="29" height="20" viewBox="0 0 29 20" fill="none" xmlns="http://www.w3.org/2000/svg">
<path d="M11.7939 19.9752C6.37058 19.8754 4.51825 19.7855 3.37969 19.551C2.60938 19.3951 1.93998 19.049 1.44916 18.5471C1.06982 18.1673 0.768138 17.5877 0.534086 16.7836C0.33332 16.1136 0.255126 15.5562 0.143648 14.1947C-0.0270034 11.1219 -0.067685 8.60971 0.143648 5.80268C0.317998 4.25255 0.402531 2.41237 1.56064 1.3388C2.10746 0.836351 2.74358 0.513012 3.45788 0.379343C4.57372 0.167482 9.32766 0 14.2491 0C19.1594 0 23.9239 0.167482 25.0408 0.379343C25.9332 0.546825 26.77 1.04874 27.2614 1.69595C28.3181 3.35808 28.3366 5.42492 28.4438 7.04162C28.4882 7.81193 28.4882 12.186 28.4438 12.9563C28.2769 15.5113 28.1427 16.4153 27.7633 17.3526C27.5287 17.9443 27.3285 18.2565 26.9819 18.6026C26.4383 19.1351 25.7454 19.4894 24.9954 19.6181C20.3022 19.971 16.317 20.0476 11.7939 19.9752ZM18.9808 9.70865C16.3698 8.31332 13.8697 7.01943 11.3142 5.68011V13.6928C14.0034 12.2309 16.8384 10.8916 18.9919 9.69755L18.9808 9.70865Z" fill="white"/>
</svg>
